PathFileType	4	(X/Y/Z)	C:/Users/opensim2020/Desktop/walking_exp_matlab/subject03_walking14_straight_03.trc	
DataRate	CameraRate	NumFrames	NumMarkers	Units	OrigDataRate	OrigDataStartFrame	OrigNumFrames	
100.00	100.00	9	47	mm	100.00	1716	215	
Frame#	Time	LFHD			RFHD			LBHD			RBHD			C7			T10			CLAV			STRN			RBAK			LSHO			LUPA			LELB			LFRM			LWRA			LWRB			LFIN			RSHO			RUPA			RELB			RFRM			RWRA			RWRB			RFIN			LASI			RASI			LPSI			RPSI			LTHI			LKNE			LTIB			LANK			LHEE			LTOE			RTHI			RKNE			RTIB			RANK			RHEE			RTOE			*39			*40			*41			*42			*43			*44			*45			*46			
		X1	Y1	Z1	X2	Y2	Z2	X3	Y3	Z3	X4	Y4	Z4	X5	Y5	Z5	X6	Y6	Z6	X7	Y7	Z7	X8	Y8	Z8	X9	Y9	Z9	X10	Y10	Z10	X11	Y11	Z11	X12	Y12	Z12	X13	Y13	Z13	X14	Y14	Z14	X15	Y15	Z15	X16	Y16	Z16	X17	Y17	Z17	X18	Y18	Z18	X19	Y19	Z19	X20	Y20	Z20	X21	Y21	Z21	X22	Y22	Z22	X23	Y23	Z23	X24	Y24	Z24	X25	Y25	Z25	X26	Y26	Z26	X27	Y27	Z27	X28	Y28	Z28	X29	Y29	Z29	X30	Y30	Z30	X31	Y31	Z31	X32	Y32	Z32	X33	Y33	Z33	X34	Y34	Z34	X35	Y35	Z35	X36	Y36	Z36	X37	Y37	Z37	X38	Y38	Z38	X39	Y39	Z39	X40	Y40	Z40	X41	Y41	Z41	X42	Y42	Z42	X43	Y43	Z43	X44	Y44	Z44	X45	Y45	Z45	X46	Y46	Z46	X47	Y47	Z47	

135	1.340	1396.09167	189.00858	1616.68201	1528.96313	200.70839	1615.52039	1409.71802	69.72263	1555.67126	1539.51404	85.74575	1554.47522	1449.62830	53.32850	1404.24658	1434.93604	25.69744	1090.65381	1445.59058	177.29984	1330.57263	1429.17017	225.80904	1168.08350	1529.92065	3.45239	1221.63672	1293.66882	132.77168	1378.23474	1209.42529	155.88306	1192.57349	1197.74976	198.14703	1079.62817	1224.77905	294.15402	1004.20477	1284.12585	377.81482	941.01318	1233.66016	370.63861	920.40045	1260.23914	441.01514	888.70575	1605.88354	125.14581	1343.46436	1671.55225	106.53442	1120.76038	1685.21106	110.11488	1007.44952	1689.76843	107.32967	870.20782	1657.70972	124.66434	769.86151	1700.13501	90.62275	771.05615	1691.34900	101.39555	696.36041	1315.83203	187.47757	920.84290	1553.50403	200.82993	937.40070	1376.66577	28.63986	942.54388	1523.20764	36.74561	962.65076	1264.47144	147.26408	617.61456	1274.83203	171.85417	439.45395	1288.95898	7.61279	333.34808	1340.66663	-159.69604	216.74747	1384.80811	-204.73792	230.82169	1351.83362	-113.86167	72.42910	1601.95593	192.75215	644.20068	1556.49792	249.43048	475.77527	1559.22644	208.78313	284.19440	1507.40381	169.51250	74.05806	1458.14050	121.69106	43.80097	1489.23242	308.70389	36.82252				1455.85559	102.39530	1660.53870																		 
136	1.350	1396.23572	202.27338	1618.68933	1529.36475	214.29408	1617.52661	1410.14087	82.72779	1558.15662	1539.84119	99.01470	1556.90784	1450.19934	65.99080	1406.31970	1436.02563	38.68212	1092.74060	1445.66516	189.84381	1332.67212	1429.47070	238.42979	1170.28967	1531.12598	16.44618	1223.94348	1293.74841	144.32152	1380.32605	1210.14001	164.80241	1193.50171	1199.08313	206.00636	1079.84338	1224.77344	299.89761	1000.83887	1282.74561	382.11298	934.32581	1232.04443	373.64868	914.46204	1258.33325	443.01215	879.42841	1606.16895	138.48972	1345.84644	1672.68567	123.04337	1123.12402	1686.48682	128.55943	1009.93872	1691.30530	128.70445	872.64001	1659.34082	148.07140	772.79218	1701.87695	114.21190	773.22864	1693.51624	127.09031	699.01837	1317.12793	200.79408	923.81104	1554.76331	213.38731	939.09912	1377.00317	41.81204	944.95709	1523.77698	49.41750	964.56335	1265.75024	167.65997	620.17065	1276.42224	196.71967	442.94995	1290.40698	34.87983	333.53622	1341.94019	-129.20941	212.70934	1386.08289	-175.95598	224.78416	1352.80444	-77.05015	71.32001	1602.03577	202.53984	645.21301	1556.02820	254.61057	475.29993	1559.05078	211.00967	284.29950	1507.25024	169.68874	74.39761	1457.94275	121.80355	44.30289	1489.16162	308.78577	36.73333				1456.05737	116.00336	1662.78015																		 
137	1.360	1396.36401	215.55519	1620.66821	1529.13586	227.57150	1619.32263	1410.36157	95.77091	1560.63586	1540.08667	112.16998	1559.31201	1450.73267	78.66048	1408.45496	1437.19641	51.51537	1094.89038	1445.79126	202.40834	1334.77820	1429.91223	250.93402	1172.38074	1532.33411	29.21618	1226.33850	1293.84985	155.90369	1382.27417	1210.92163	173.97128	1194.44775	1200.28748	213.53407	1079.69629	1224.56213	305.36407	997.31769	1281.31470	385.82083	927.20953	1230.29480	376.19131	908.29950	1256.11682	444.15936	869.50049	1606.51135	151.60817	1348.35254	1673.67578	139.17079	1125.50488	1687.77356	147.07851	1012.64362	1692.86658	150.30009	875.41083	1660.87842	171.80789	776.07867	1703.58203	138.10027	775.76685	1695.73218	153.19353	702.06628	1318.39307	214.20294	926.72644	1556.16687	225.71027	940.78442	1377.20679	54.99266	947.51550	1524.11963	62.01969	966.37164	1267.07104	187.68968	622.98438	1278.29309	221.20689	446.70636	1292.17883	62.29800	333.24350	1343.36462	-98.24580	207.58781	1386.85254	-146.38234	216.99837	1354.13611	-38.96194	69.34165	1601.83679	212.44151	646.04663	1555.47485	259.48712	474.72726	1558.95886	212.83678	284.52527	1506.85193	170.06963	74.84566	1457.51819	122.13415	44.84936	1489.10620	308.93317	36.67331				1456.34937	129.72295	1665.23669																		 
138	1.370	1396.42981	228.60732	1622.46899	1529.48096	240.94141	1621.24377	1410.59155	108.66274	1563.02368	1540.21680	125.22607	1561.62781	1451.14758	91.33389	1410.49854	1438.37134	64.42186	1096.86292	1445.99390	214.92285	1336.78320	1430.66956	263.35733	1174.38098	1533.44080	42.00472	1228.68604	1293.93481	167.54143	1384.04529	1211.80249	183.13049	1195.23743	1201.45337	221.15808	1079.52319	1224.21191	310.51102	993.58051	1279.44824	389.05701	919.83136	1228.31396	378.23969	901.91461	1253.51050	444.42151	859.18976	1606.81958	164.56021	1350.78748	1674.72302	155.41205	1127.99756	1689.05444	165.61423	1015.42218	1694.27124	172.03409	878.32538	1662.68738	196.10501	779.73114	1705.17029	162.26492	778.46313	1697.82837	179.59918	705.41272	1319.99744	227.68895	929.60046	1557.51367	237.88206	942.49615	1377.23230	68.11425	949.90625	1524.36621	74.54802	968.15320	1268.30945	207.20909	625.98450	1280.44543	245.21141	450.72198	1294.04932	90.06632	332.17834	1344.08081	-66.53577	201.02222	1387.63879	-115.84792	207.54837	1355.87390	0.62566	66.95904	1601.52136	221.99255	646.69678	1555.14661	264.04514	474.31750	1558.91443	214.56470	284.72720	1506.72229	170.27150	75.34130	1457.56226	122.23085	45.57753	1489.02612	309.09015	36.62118				1456.17371	142.78450	1667.01563																		 
139	1.380	1396.40442	241.68452	1624.19983	1529.36841	254.05672	1622.96655	1410.65857	121.55992	1565.17773	1540.30920	138.20016	1563.85168	1451.51477	103.80766	1412.42896	1439.34912	77.12164	1098.84888	1446.18030	227.34076	1338.63782	1431.46399	275.73367	1176.18774	1534.58777	54.72302	1230.98804	1294.05835	179.27646	1385.57129	1212.84290	192.46025	1195.93835	1202.57263	228.71336	1079.18347	1223.63928	315.47583	989.60822	1277.26184	391.82681	912.13025	1226.14600	379.68152	895.25372	1250.55396	443.81296	848.54639	1607.08862	177.33708	1353.24036	1675.87012	171.65471	1130.66516	1690.28113	184.26401	1018.31787	1695.65637	193.84595	881.45917	1664.04797	220.08191	783.51239	1706.89038	186.64085	781.52277	1699.68335	206.09831	709.01862	1321.46106	241.30403	932.53674	1558.88135	250.01337	944.07336	1377.22632	81.16735	952.31683	1524.60852	87.04859	969.86029	1269.60901	226.38727	629.01654	1282.91028	268.60391	454.73624	1295.84375	118.02660	330.42950	1345.03442	-34.04739	193.29997	1388.08398	-84.54923	196.93990	1357.52954	41.84354	64.53075	1600.97778	230.86319	647.42761	1554.97559	268.21790	473.95361	1558.91064	216.30885	284.98529	1506.91772	170.27620	75.73198	1457.39148	122.35930	46.32499	1488.97144	309.22382	36.55600																								 
140	1.390	1396.35571	254.72893	1625.69861	1529.22937	267.00671	1624.59607	1410.64246	134.38484	1567.11377	1540.30042	151.00172	1565.87988	1451.92139	116.43446	1414.23779	1440.28308	89.81308	1100.44092	1446.45593	239.77316	1340.32971	1432.15735	288.14951	1177.78064	1535.78699	67.25932	1233.27332	1294.21350	191.20068	1386.84216	1213.79309	201.91846	1196.21594	1203.54602	236.40402	1078.73694	1222.96704	320.17148	985.41913	1274.81287	394.22876	904.26190	1223.73438	380.57965	888.44550	1247.18738	442.33887	837.75513	1607.45166	190.04695	1355.59216	1676.85278	187.59485	1133.12146	1691.53699	202.65765	1021.27509	1697.06934	215.74953	884.78522	1665.31360	244.29707	787.56842	1708.00830	211.01830	784.62073	1701.42444	232.78661	712.96082	1322.83289	254.91998	935.48578	1559.99805	262.08203	945.54376	1377.30786	94.24743	954.54840	1524.86804	99.62011	971.52026	1270.76270	245.20729	632.02155	1285.53955	291.68423	458.80103	1297.53821	146.05170	328.34198	1345.83179	-0.48363	184.56265	1388.04797	-51.81048	185.06459	1359.54333	83.39420	61.35282	1600.70105	239.28629	648.02557	1554.98547	272.03671	473.74478	1558.92505	218.14980	285.33658	1506.82935	170.53992	76.31470	1457.23071	122.63504	47.25984	1488.88782	309.39447	36.39974				1456.48254	169.75745	1671.35559																		 
141	1.400	1396.17969	267.56763	1627.03662	1529.04028	279.91898	1626.09717	1410.57568	147.21654	1568.76306	1540.24512	163.78889	1567.73315	1452.22852	128.95305	1415.83704	1441.10437	102.39051	1102.08521	1446.77527	252.10887	1341.84302	1433.03113	300.45355	1179.28625	1537.04675	79.97812	1235.27295	1294.39160	203.23076	1387.76672	1214.82263	211.44147	1196.44177	1204.44763	243.98683	1078.12061	1222.14063	324.58493	980.96503	1272.12268	396.03192	896.12909	1221.01807	380.95340	881.49854	1243.48767	440.06702	826.94043	1607.80103	202.77730	1357.83643	1678.10840	203.72177	1135.69080	1692.79541	220.92232	1024.19470	1698.31213	237.53403	888.08490	1666.45667	268.56149	791.76007	1709.35938	235.75291	788.00427	1702.84900	259.50797	716.89972	1324.20190	268.37119	938.09344	1560.85339	274.16660	946.72400	1377.41895	107.15353	956.53625	1525.12622	112.26134	972.99353	1271.99158	263.74902	634.92010	1288.52576	313.87512	462.83328	1299.20190	173.99232	325.90167	1346.46008	34.22121	174.89388	1388.19812	-17.94770	172.34595	1361.26563	125.95679	58.16682	1600.13879	248.00569	648.52490	1555.23718	275.65372	473.64658	1558.95935	219.86180	285.90988	1506.73718	170.71863	77.04910	1457.00012	122.85272	48.30215	1489.00793	309.44562	36.31956																								 
142	1.410	1395.93567	280.46124	1628.12085	1528.79968	292.70526	1627.49084	1410.45630	159.88391	1570.13770	1540.11804	176.47565	1569.37292	1452.54041	141.45982	1417.26563	1441.82239	114.92035	1103.52356	1447.06128	264.49326	1343.23096	1433.92480	312.80429	1180.60986	1538.32629	92.61537	1237.09314	1294.62122	215.27225	1388.50842	1215.79529	221.30426	1196.33215	1205.45081	251.90956	1077.20679	1221.27148	328.85779	976.41565	1269.30371	397.32251	887.76013	1218.29993	380.67282	874.43744	1239.44836	436.99350	816.20380	1608.07568	215.44197	1359.90698	1679.21448	219.36987	1138.05933	1694.16711	238.97736	1027.11304	1699.54138	259.29547	891.45953	1667.53931	293.00839	796.21033	1710.60193	260.18402	791.49731	1704.34973	286.42819	721.48163	1325.06567	281.96136	940.32117	1561.52026	286.31332	947.66064	1377.47998	120.11916	958.32196	1525.30127	124.70640	974.45740	1273.15955	281.92682	637.66504	1291.57324	335.61996	466.66357	1300.94641	202.04771	323.04123	1347.20532	69.63301	164.90302	1388.43274	17.22779	158.95067	1363.16101	168.66081	54.67620	1599.97253	254.41364	649.23828	1555.65015	278.94064	473.59131	1559.12927	221.13600	286.52774	1506.60669	170.90417	77.82241	1456.83691	123.12428	49.73927	1489.11206	309.60052	36.26537				1455.05115	195.30405	1673.85608																		 
143	1.420	1395.68579	293.24435	1628.97632	1528.48950	305.38165	1628.66821	1410.28235	172.59068	1571.21924	1539.95874	189.08862	1570.81982	1452.79932	153.92053	1418.44031	1442.42041	127.43687	1104.67090	1447.39563	276.81158	1344.33057	1434.78076	325.10562	1181.74121	1539.50024	105.32895	1238.60388	1294.82202	227.48436	1388.97485	1216.81580	231.26039	1196.19910	1206.36707	259.41733	1076.30212	1220.38928	332.98679	971.70514	1266.32373	398.06552	879.26001	1215.50952	379.71954	867.30524	1235.20850	433.08356	805.68384	1608.37280	228.00749	1361.76160	1680.60278	235.28596	1140.39001	1695.60876	256.94458	1029.87231	1700.82788	281.07782	894.87628	1668.50220	317.23511	800.70410	1711.51270	284.80560	794.95685	1705.51343	313.24866	725.94427	1325.37659	294.71457	941.84918	1562.03748	298.41690	948.32404	1377.36804	133.13550	959.71729	1525.42639	137.17235	975.67542	1274.29480	299.73999	640.16492	1294.70728	356.66980	470.34262	1302.70300	230.06232	319.77789	1347.83057	106.10851	154.44505	1388.49219	53.52561	145.24652	1364.97632	211.87099	51.16530	1599.89612	261.50613	649.72931	1556.20667	282.01370	473.52206	1559.34839	222.16568	287.27176	1506.53821	171.03938	78.63786	1456.38818	123.17449	50.93954	1489.22742	309.73859	36.18844																								 
